<svg id="Layer_1" enable-background="new 0 0 512.51 512.51" height="512" viewBox="0 0 512.51 512.51" width="512" xmlns="http://www.w3.org/2000/svg"><g><g><g><path d="m502.373 266.391c0 76.459-34.865 144.775-89.564 189.917-42.544 35.11-97.086 39.023-156.554 39.023-135.927 0-226.798-89.807-226.798-225.735 0-127.156 77.108-234.995 200.829-247.97 8.534-.895 17.198-1.354 25.969-1.354 135.927.001 246.118 110.192 246.118 246.119z" fill="#ff5551"/></g></g><path d="m451.538 348.412c-5.269-14.545-19.202-24.938-35.566-24.938-1.272 0-2.538.064-3.791.189-13.747 1.377-27.629-.133-40.691-4.634l-5.45-1.878c-9.858-3.396-16.474-12.674-16.474-23.1 0-3.95-3.044-7.394-6.992-7.512-4.085-.122-7.435 3.152-7.435 7.21v4.314c0 4.134-4.072 7.038-7.981 5.692-3.051-1.051-4.73-4.321-3.808-7.413l64.288-215.458c.51-1.71-.408-3.519-2.088-4.118l-2.453-.874c-1.681-.598-2.598-2.408-2.088-4.117.529-1.775-.48-3.642-2.254-4.172l-1.014-.302c-1.775-.529-2.784-2.397-2.254-4.172l.703-2.355c.529-1.775-.48-3.642-2.254-4.172l-112.32-33.514c-6.55-1.954-13.399-2.763-20.222-2.354-19.895 1.19-35.484 4.53-44.721 6.827v-.01c-4.906 1.22-10.851 2.915-15.488 4.398.001.003.002.007.004.01-1.361.436-2.717.883-4.069 1.341 0-.009.002-.018.002-.027-5.202 1.765-12.11 4.382-18.339 7.072l-.002.005c-3.891 1.68-7.729 3.462-11.513 5.334l-.008-.003c-2.251 1.114-6.048 3.084-7.386 3.803.002.005.005.009.007.013-2.661 1.431-5.292 2.908-7.893 4.433.002-.005.005-.01.007-.015-75.596 44.296-124.214 126.878-121.771 219.118 3.547 133.88 114.669 240.828 248.59 239.463 58.107-.592 111.385-21.323 153.196-55.545 22.218-18.185 6.211-53.934-22.165-49.561-.438.068-.877.134-1.316.199-5.892.875-7.916-7.583-2.284-9.523.306-.105.607-.209.905-.312 5.856-2.017 12.161-1.946 18.097-.18 18.716 5.567 39.359-4.262 46.291-23.401h9.7c10.268 0 19.507-6.235 23.349-15.758l.042-.105c.349-.865.528-1.789.528-2.721 0-3.965-3.214-7.178-7.178-7.178h-26.441zm-123.807 34.731-13.529 4.661c-8.456 2.913-16.663-4.958-14.106-13.528l7.992-26.785c2.246-7.528 10.31-11.67 17.737-9.111 5.573 1.92 9.314 7.165 9.314 13.06v21.315c-.001 4.689-2.975 8.861-7.408 10.388zm50.675-17.459-18.44 6.353c-5.094 1.755-10.4-2.029-10.4-7.417v-18.059l28.886 9.952c-.384 3.066-.395 6.111-.046 9.171z" fill="#e20a62"/><g><g><path d="m63.712 353.56 4.623-15.492 291.605-259.567 8.45 3.009-99.446 333.287z" fill="#ffc305"/></g><g><path d="m57.131 344.289 2.542-8.52h18.158l95.307-319.826 188.67 56.295-99.446 333.287z" fill="#fff"/></g><g><path d="m226.067 22.172s-82.075 149.179-92.02 179.212v156.291l123.496 36.849 99.446-333.287z" fill="#f8e000"/></g><g><g><path d="m296.254 138.483c1.294-4.336-1.172-8.899-5.508-10.193l-54.227-16.18c-9.275-2.767-17.057-9.13-21.612-17.67s-5.505-18.547-2.637-27.791l13.797-44.476-74.31-22.173-99.446 333.287 205.232 61.237 8.237-27.607-98.999-29.539c-9.269-2.766-17.047-9.122-21.603-17.653-4.557-8.532-5.513-18.531-2.657-27.772l28.508-92.234c5.869-18.989 25.937-29.707 44.983-24.024l55.637 16.601c4.336 1.294 8.899-1.172 10.193-5.508zm-133.115-128.079c7.009 0 6.997 10.875 0 10.875-7.009 0-6.998-10.875 0-10.875zm-92.172 320.075c-7.009 0-6.997-10.875 0-10.875 7.009.001 6.997 10.875 0 10.875zm6.864-22.552c-7.009 0-6.997-10.874 0-10.874 7.009-.001 6.997 10.874 0 10.874zm6.537-21.899c-7.009 0-6.997-10.875 0-10.875 7.009 0 6.997 10.875 0 10.875zm6.21-21.899c-7.009 0-6.997-10.875 0-10.875 7.009 0 6.997 10.875 0 10.875zm6.21-22.226c-7.009 0-6.997-10.875 0-10.875 7.009 0 6.997 10.875 0 10.875zm6.864-21.899c-7.009 0-6.997-10.874 0-10.874 7.009-.001 6.997 10.874 0 10.874zm6.864-22.226c-7.009 0-6.997-10.874 0-10.874 7.009 0 6.997 10.874 0 10.874zm6.21-21.899c-7.009 0-6.997-10.875 0-10.875 7.009.001 6.997 10.875 0 10.875zm6.864-21.899c-7.009 0-6.997-10.875 0-10.875 7.009.001 6.997 10.875 0 10.875zm6.864-22.226c-7.009 0-6.997-10.875 0-10.875 7.008.001 6.997 10.875 0 10.875zm6.21-22.226c-7.009 0-6.997-10.875 0-10.875 7.009.001 6.997 10.875 0 10.875zm6.537-21.899c-7.009 0-6.997-10.874 0-10.874 7.009 0 6.997 10.874 0 10.874zm6.537-22.225c-7.009 0-6.997-10.875 0-10.875 7.009 0 6.997 10.875 0 10.875zm6.537-21.899c-7.009 0-6.997-10.875 0-10.875 7.009 0 6.997 10.875 0 10.875z" fill="#ffc305"/></g></g><g><g><g><path d="m160.034 18.347c-.333 0-.672-.048-1.009-.148l-23.924-7.138c-1.865-.557-2.926-2.52-2.37-4.386.557-1.864 2.511-2.926 4.387-2.37l23.924 7.138c1.865.557 2.926 2.52 2.37 4.386-.458 1.529-1.86 2.518-3.378 2.518z" fill="#2d56a1"/></g></g><g><g><path d="m153.452 40.404c-.333 0-.672-.048-1.008-.148l-23.924-7.138c-1.866-.557-2.927-2.52-2.371-4.386.558-1.865 2.516-2.927 4.386-2.37l23.924 7.138c1.866.557 2.927 2.52 2.371 4.386-.457 1.529-1.859 2.518-3.378 2.518z" fill="#2d56a1"/></g></g><g><g><path d="m146.871 62.462c-.333 0-.672-.048-1.009-.148l-23.924-7.138c-1.865-.557-2.926-2.52-2.37-4.386.557-1.865 2.511-2.926 4.387-2.37l23.924 7.138c1.865.557 2.926 2.52 2.37 4.386-.458 1.529-1.859 2.518-3.378 2.518z" fill="#2d56a1"/></g></g><g><g><path d="m140.29 84.52c-.333 0-.672-.048-1.009-.148l-23.924-7.138c-1.865-.557-2.926-2.52-2.37-4.386.558-1.864 2.513-2.927 4.387-2.37l23.924 7.138c1.865.557 2.926 2.52 2.37 4.386-.458 1.529-1.86 2.518-3.378 2.518z" fill="#2d56a1"/></g></g><g><g><path d="m133.708 106.577c-.333 0-.672-.048-1.008-.148l-23.924-7.138c-1.866-.557-2.927-2.52-2.371-4.386.557-1.864 2.516-2.927 4.386-2.37l23.924 7.138c1.866.557 2.927 2.52 2.371 4.386-.458 1.53-1.859 2.518-3.378 2.518z" fill="#2d56a1"/></g></g><g><g><path d="m127.127 128.635c-.333 0-.672-.048-1.009-.148l-23.924-7.138c-1.865-.557-2.926-2.52-2.37-4.386.558-1.864 2.513-2.926 4.387-2.37l23.924 7.138c1.865.557 2.926 2.52 2.37 4.386-.458 1.53-1.86 2.518-3.378 2.518z" fill="#2d56a1"/></g></g><g><g><path d="m120.545 150.693c-.333 0-.672-.048-1.009-.148l-23.924-7.138c-1.865-.557-2.926-2.52-2.37-4.386s2.513-2.927 4.387-2.37l23.924 7.138c1.865.557 2.926 2.52 2.37 4.386-.457 1.529-1.859 2.518-3.378 2.518z" fill="#2d56a1"/></g></g><g><g><path d="m113.963 172.751c-.333 0-.672-.048-1.009-.148l-23.923-7.138c-1.865-.557-2.926-2.52-2.37-4.386.558-1.865 2.513-2.927 4.387-2.37l23.923 7.138c1.865.557 2.926 2.52 2.37 4.386-.458 1.529-1.86 2.518-3.378 2.518z" fill="#2d56a1"/></g></g><g><g><path d="m107.381 194.808c-.333 0-.672-.048-1.008-.148l-23.924-7.138c-1.866-.557-2.927-2.52-2.371-4.386.558-1.865 2.517-2.927 4.386-2.37l23.924 7.138c1.866.557 2.927 2.52 2.371 4.386-.457 1.53-1.859 2.518-3.378 2.518z" fill="#2d56a1"/></g></g><g><g><path d="m100.8 216.866c-.333 0-.672-.048-1.009-.148l-23.924-7.138c-1.865-.557-2.926-2.52-2.37-4.386.558-1.864 2.511-2.927 4.387-2.37l23.924 7.138c1.865.557 2.926 2.52 2.37 4.386-.458 1.53-1.86 2.518-3.378 2.518z" fill="#2d56a1"/></g></g><g><g><path d="m94.218 238.924c-.333 0-.672-.048-1.009-.148l-23.924-7.138c-1.865-.557-2.926-2.52-2.37-4.386.558-1.864 2.511-2.927 4.387-2.37l23.924 7.138c1.865.557 2.926 2.52 2.37 4.386-.457 1.53-1.859 2.518-3.378 2.518z" fill="#2d56a1"/></g></g><g><g><path d="m87.637 260.982c-.333 0-.672-.048-1.008-.148l-23.924-7.138c-1.866-.557-2.927-2.52-2.371-4.386.558-1.864 2.517-2.927 4.386-2.37l23.924 7.138c1.866.557 2.927 2.52 2.371 4.386-.458 1.529-1.859 2.518-3.378 2.518z" fill="#2d56a1"/></g></g><g><g><path d="m81.056 283.04c-.333 0-.672-.048-1.009-.148l-23.924-7.138c-1.865-.557-2.926-2.52-2.37-4.386.558-1.865 2.511-2.927 4.387-2.37l23.924 7.138c1.865.556 2.926 2.52 2.37 4.386-.458 1.529-1.86 2.518-3.378 2.518z" fill="#2d56a1"/></g></g><g><g><path d="m74.474 305.097c-.333 0-.672-.048-1.009-.148l-23.924-7.138c-1.865-.557-2.926-2.52-2.37-4.386.558-1.865 2.511-2.927 4.387-2.37l23.924 7.138c1.865.557 2.926 2.52 2.37 4.386-.458 1.53-1.859 2.518-3.378 2.518z" fill="#2d56a1"/></g></g><g><g><path d="m67.892 327.155c-.333 0-.672-.048-1.009-.148l-23.923-7.138c-1.865-.556-2.926-2.52-2.37-4.386.558-1.865 2.511-2.927 4.387-2.37l23.923 7.138c1.865.556 2.926 2.52 2.37 4.386-.458 1.529-1.86 2.518-3.378 2.518z" fill="#2d56a1"/></g></g></g><g><path d="m165.574 150.955c-4.336-1.294-6.802-5.857-5.508-10.193l14.413-48.304c1.294-4.336 5.857-6.802 10.193-5.508l104.013 31.035c4.336 1.294 6.802 5.857 5.508 10.193l-14.413 48.304c-1.294 4.336-5.857 6.802-10.193 5.508z" fill="#fff"/></g><g fill="#ff5551"><path d="m189.647 131.347c-.84.777-1.787.822-2.603.578-.771-.23-1.508-.731-1.73-1.871l-1.848-8.68-4.927 16.516c-.411 1.373-2.288 1.56-3.961 1.061-1.674-.499-3.142-1.685-2.731-3.057l7.743-25.953c.731-2.445 2.672-2.846 4.345-2.347 2.402.717 3.354 1.281 4.192 4.894l2.113 9.039 6.722-6.403c2.68-2.564 3.788-2.514 6.19-1.797 1.715.512 3.076 1.899 2.348 4.344l-7.745 25.952c-.409 1.373-2.287 1.56-3.96 1.061-1.674-.499-3.141-1.685-2.732-3.057l4.8-16.087z"/><path d="m200.453 143.682c.038-.129.132-.288.226-.446l15.786-23.787c.92-1.361 3.068-1.514 5.041-.925 1.974.589 3.686 1.894 3.71 3.536l.214 28.561c-.008.185-.017.369-.055.497-.474 1.588-3.264 2.017-5.108 1.466-1.073-.32-1.829-.92-1.817-1.897l.142-5.798-9.051-2.701-3.058 4.927c-.526.824-1.487.912-2.56.592-1.843-.551-3.944-2.438-3.47-4.025zm18.26-4.363.298-12.431-6.561 10.563z"/><path d="m252.279 127.985c1.416.423 1.556 2.146 1.133 3.561-.486 1.63-1.639 2.828-2.925 2.444l-5.92-1.766-6.951 23.293c-.409 1.373-2.286 1.56-3.96 1.061s-3.141-1.685-2.732-3.057l6.951-23.293-5.919-1.766c-1.287-.384-1.594-2.017-1.108-3.647.423-1.416 1.484-2.781 2.9-2.358z"/><path d="m266.912 151.598-8.536-2.547-3.468 11.625c-.411 1.373-2.288 1.56-3.962 1.061-1.673-.499-3.141-1.685-2.732-3.057l8.141-27.283c.423-1.415 2.275-1.517 3.948-1.017 1.674.499 3.167 1.599 2.745 3.014l-3.136 10.51 8.536 2.547 3.136-10.51c.422-1.415 2.275-1.517 3.948-1.017 1.674.499 3.166 1.599 2.744 3.014l-8.14 27.283c-.411 1.373-2.287 1.559-3.961 1.06-1.673-.499-3.142-1.685-2.731-3.057z"/></g><g><g><path d="m216.787 324.561c-11.11 0-14.426-9.672-14.426-20.783 0-11.11 3.316-19.451 14.426-19.451s20.117 9.007 20.117 20.117-9.007 20.117-20.117 20.117z" fill="#ff8500"/></g><g><path d="m211.598 304.445c0-8.47 5.242-15.704 12.653-18.67-3.246-1.299-6.895-1.804-10.729-1.181-8.92 1.449-15.905 8.89-16.758 17.887-1.137 11.993 8.265 22.081 20.023 22.081h.079c2.548-.01 3.646-3.23 1.715-4.893-4.275-3.686-6.983-9.136-6.983-15.224z" fill="#fa690f"/></g><g><path d="m191.79 302.821 178.276 61.423 4.305-12.495-169.365-58.353c-6.473-2.23-13.216 2.579-13.216 9.425z" fill="#6ee1ff"/></g><g><path d="m211.274 295.826-34.273-12.079c-6.901-2.378-14.423 1.289-16.8 8.19l34.368 11.841c2.469-6.743 9.885-10.301 16.705-7.952z" fill="#05cdff"/></g><g><path d="m218.81 298.152 155.561 53.597 6.501-18.867-142.106-48.961c-9.774-3.368-19.956 3.893-19.956 14.231z" fill="#2d56a1"/></g><g><path d="m246.511 286.805-33.221-11.662c-10.42-3.59-21.778 1.947-25.368 12.367l33.297 11.472c3.664-10.294 14.937-15.745 25.292-12.177z" fill="#1a396b"/></g><g><path d="m160.201 437.594c2.378 6.901 9.899 10.568 16.8 8.19l197.37-68.002-4.305-12.495z" fill="#6ee1ff"/></g><g><path d="m220.457 416.834-60.256 20.761c2.378 6.901 9.899 10.568 16.8 8.19l43.456-14.972z" fill="#05cdff"/></g><g><path d="m187.922 442.022 186.449-64.239 6.501 18.867-167.582 57.738c-10.42 3.59-21.778-1.946-25.368-12.366z" fill="#2d56a1"/></g><g><path d="m216.787 451.221c-11.11 0-13.991-9.007-13.991-20.117s2.88-20.117 13.991-20.117c11.11 0 20.117 9.007 20.117 20.117s-9.007 20.117-20.117 20.117z" fill="#ff8500"/></g><g><path d="m212.795 431.104c0-5.023 1.843-9.612 4.888-13.135 2.462-2.848.232-7.292-3.502-6.815-.078.01-.156.02-.234.031-9.048 1.26-16.234 8.702-17.167 17.79-1.239 12.065 8.195 22.246 20.007 22.246h.086c2.844-.012 4.252-3.58 2.189-5.538-3.859-3.663-6.267-8.838-6.267-14.579z" fill="#fa690f"/></g><g><g><path d="m439.001 352.087h25.999v25.762h-25.999z" fill="#2d56a1"/></g></g><g><path d="m402.297 377.85h39.659c1.337-3.871 2.073-8.021 2.073-12.346 0-4.726-.874-9.245-2.457-13.416h-39.274v25.762z" fill="#1a396b"/></g><g><path d="m395.814 402.788c-20.887 0-31.806-16.932-31.806-37.82 0-17.525 5.906-32.265 22.08-36.557 3.103-.823 6.363-1.262 9.726-1.262 20.887 0 37.819 16.932 37.819 37.819 0 20.888-16.932 37.82-37.819 37.82z" fill="#f8e000"/></g><g><path d="m415.896 369.961c-.579-10.069-8.786-18.288-18.854-18.89-.103-.006-.205-.011-.307-.016-6.447-.289-9.755-7.938-5.341-12.646.088-.093.176-.186.264-.279 4.081-4.266.13-11.252-5.572-9.724-15.815 4.24-28.092 18.617-28.092 36.561 0 22.527 19.2 39.093 40.152 37.772 3.133-.198 4.177-4.386 1.482-5.997-.055-.033-.109-.066-.164-.099-2.481-1.5-1.813-5.249 1.008-5.916 9.168-2.166 16.004-10.684 15.424-20.766z" fill="#ffc305"/></g><g><g><path d="m322.194 438.317c-3.984 0-7.213-3.229-7.213-7.213v-133.68c0-3.984 3.229-7.213 7.213-7.213s7.213 3.229 7.213 7.213v133.68c0 3.984-3.229 7.213-7.213 7.213z" fill="#1a396b"/></g></g><g><path d="m395.814 385.085c-11.11 0-17.408-8.291-17.408-19.401 0-6.281.171-12.606 4.681-16.295 3.467-2.836 7.899-4.537 12.727-4.537 11.11 0 20.117 9.007 20.117 20.117s-9.007 20.116-20.117 20.116z" fill="#ff8500"/></g><g><path d="m388.769 358.901c0-1.876.258-3.692.74-5.414 1.045-3.733-3.41-6.538-6.413-4.088-4.857 3.962-7.826 10.146-7.348 17.009.705 10.125 9.133 18.271 19.275 18.661.105.004.209.007.314.01 5.05.117 6.945-6.51 2.692-9.237-5.596-3.588-9.26-9.874-9.26-16.941z" fill="#fa690f"/></g></g></g></g></svg>